<mxfile host="app.diagrams.net" modified="2024-05-24T17:07:52.859Z" agent="Mozilla/5.0 (Windows NT 10.0; Win64; x64) AppleWebKit/537.36 (KHTML, like Gecko) Chrome/123.0.0.0 Safari/537.36 Edg/123.0.0.0" version="24.4.8" etag="QuM_dWVAniRJtQeTeR09" type="github">
  <diagram name="Page-1" id="I6BlNJ3_lQUi5EsWjJ2I">
    <mxGraphModel>
      <root>
        <mxCell id="0" />
        <mxCell id="1" parent="0" />
      </root>
    </mxGraphModel>
  </diagram>
</mxfile>
